<?xml version="1.0" encoding="UTF-8" standalone="no"?>
<!-- Created with Inkscape (http://www.inkscape.org/) -->

<svg
   version="1.1"
   id="svg1"
   width="322.32812"
   height="134.96875"
   viewBox="0 0 322.32812 134.96875"
   xmlns="http://www.w3.org/2000/svg"
   xmlns:svg="http://www.w3.org/2000/svg">
  <defs
     id="defs1" />
  <g
     id="g1"
     transform="translate(-85.691407,-175.98437)">
    <g
       id="g4">
      <g
         id="g5" />
      <path
         id="path5"
         d="m 58.375788,0.95313796 c -2.4375,0 -4.492188,-0.82812504 -6.15625,-2.48437506 -1.65625,-1.6640626 -2.484375,-3.7187502 -2.484375,-6.1562503 V -117.70312 H 10.563286 c -2.3046874,0 -4.2265625,-0.76562 -5.7656251,-2.29687 -1.53125,-1.53125 -2.2968751,-3.45313 -2.2968751,-5.76563 0,-2.30078 0.7656251,-4.25 2.2968751,-5.84375 1.5390626,-1.60156 3.4609377,-2.40625 5.7656251,-2.40625 h 95.609384 c 2.30078,0 4.2539,0.80469 5.85937,2.40625 1.60156,1.59375 2.40625,3.54297 2.40625,5.84375 0,2.3125 -0.80469,4.23438 -2.40625,5.76563 -1.60547,1.53125 -3.55859,2.29687 -5.85937,2.29687 H 67.203914 V -7.6874874 c 0,2.4375001 -0.867188,4.4921877 -2.593751,6.1562503 -1.730468,1.65625002 -3.808594,2.48437506 -6.234375,2.48437506 z m 0,0"
         style="fill:#000000;fill-opacity:1;fill-rule:nonzero;stroke:none"
         aria-label="T"
         transform="translate(83.190621,309.99999)" />
    </g>
    <g
       id="g6">
      <g
         id="g7" />
      <path
         id="path7"
         d="m 9.0922046,0.31192405 c -0.8125,0 -1.5000001,-0.27734376 -2.0625001,-0.82812503 C 6.475017,-1.0669823 6.2015795,-1.750576 6.2015795,-2.5630761 V -41.734953 c 0,-0.800781 0.2734375,-1.488281 0.828125,-2.0625 0.5625,-0.582031 1.2500001,-0.875 2.0625001,-0.875 H 33.982831 c 0.769531,0 1.421875,0.265625 1.953125,0.796875 0.53125,0.53125 0.796875,1.183594 0.796875,1.953125 0,0.773438 -0.265625,1.414063 -0.796875,1.921875 -0.53125,0.511719 -1.183594,0.765625 -1.953125,0.765625 H 12.029705 v 14.140626 h 19.718751 c 0.757812,0 1.40625,0.273438 1.9375,0.8125 0.539062,0.53125 0.8125,1.179688 0.8125,1.9375 0,0.773438 -0.273438,1.417969 -0.8125,1.9375 -0.53125,0.511719 -1.179688,0.765625 -1.9375,0.765625 H 12.029705 v 17.0781259 c 0,0.8125001 -0.292969,1.4960938 -0.875,2.04687512 C 10.580486,0.03458029 9.8929859,0.31192405 9.0922046,0.31192405 Z M 48.006269,-5.7595863e-4 c -0.8125,0 -1.5,-0.27343751137 -2.0625,-0.82812503137 C 45.389081,-1.3794823 45.115644,-2.063076 45.115644,-2.8755761 V -41.734953 c 0,-0.800781 0.273437,-1.488281 0.828125,-2.0625 0.5625,-0.582031 1.25,-0.875 2.0625,-0.875 h 12.859375 c 4.863282,0 8.988282,1.078125 12.375001,3.234375 3.394531,2.15625 5.945313,4.945313 7.65625,8.359376 1.707031,3.40625 2.5625,6.984375 2.5625,10.734375 0,3.761719 -0.855469,7.351563 -2.5625,10.765626 -1.710937,3.4062497 -4.261719,6.1874998 -7.65625,8.3437499 -3.386719,2.1562501 -7.511719,3.23437514137 -12.375001,3.23437514137 z M 60.162519,-5.4380762 c 3.5,0 6.570313,-0.7109375 9.218751,-2.1406251 2.644531,-1.4375 4.691406,-3.4218747 6.140625,-5.9531257 1.445312,-2.539062 2.171875,-5.476562 2.171875,-8.8125 0,-3.320313 -0.726563,-6.25 -2.171875,-8.78125 -1.449219,-2.539063 -3.496094,-4.523438 -6.140625,-5.953126 -2.648438,-1.4375 -5.718751,-2.15625 -9.218751,-2.15625 h -9.21875 v 33.7968768 z m 0,0"
         style="fill:#000000;fill-opacity:1;fill-rule:nonzero;stroke:none"
         aria-label="FD"
         transform="translate(156.63436,251.79354)" />
    </g>
    <g
       id="g8">
      <g
         id="g9" />
      <path
         id="path9"
         d="m 6.9382975,0.28225719 c -0.7109375,0 -1.3085938,-0.24218751 -1.7968751,-0.71875003 -0.4804687,-0.48828127 -0.71875,-1.08593756 -0.71875,-1.79687506 V -26.264619 c 0,-0.707031 0.2382813,-1.3125 0.71875,-1.8125 0.4882813,-0.507813 1.0859376,-0.765625 1.7968751,-0.765625 0.7187501,0 1.3281251,0.257812 1.8281251,0.765625 0.5,0.5 0.75,1.105469 0.75,1.8125 v 2.40625 c 2.6132814,-3.507812 5.5468754,-5.265625 8.7968754,-5.265625 h 0.28125 c 0.707031,0 1.296875,0.246094 1.765625,0.734375 0.46875,0.492188 0.703125,1.089844 0.703125,1.796875 0,0.710938 -0.246094,1.289063 -0.734375,1.734375 -0.492187,0.449219 -1.105469,0.671875 -1.84375,0.671875 h -0.28125 c -1.792969,0 -3.4375,0.4375 -4.9375,1.3125 -1.492188,0.875 -2.742188,2.078125 -3.7500004,3.609375 v 17.0312511 c 0,0.7109375 -0.25,1.30859379 -0.75,1.79687506 -0.5,0.47656252 -1.109375,0.71875003 -1.8281251,0.71875003 z M 49.950018,0.56350721 c -1.648438,0 -3.167969,-0.33593752 -4.5625,-1.00000005 C 43.98908,-1.1122741 42.879705,-2.0927429 42.059393,-3.373993 c -0.824219,-1.2890625 -1.234375,-2.7812501 -1.234375,-4.4687501 0,-2.7578129 1.085937,-4.9570319 3.265625,-6.5937499 2.1875,-1.644532 5.390625,-2.468751 9.609375,-2.468751 h 6.781251 v -0.453125 c 0,-2.46875 -0.609376,-4.238281 -1.828126,-5.3125 -1.210937,-1.082031 -3.101562,-1.625 -5.671875,-1.625 -1.429687,0 -2.695312,0.117188 -3.796875,0.34375 -1.09375,0.21875 -2.3125,0.554688 -3.65625,1 -0.304688,0.07422 -0.546875,0.109375 -0.734375,0.109375 -0.554688,0 -1.039063,-0.203125 -1.453125,-0.609375 -0.40625,-0.414062 -0.609375,-0.921875 -0.609375,-1.515625 0,-1.007812 0.484375,-1.722656 1.453125,-2.140625 3.175781,-1.34375 6.40625,-2.015625 9.6875,-2.015625 2.570313,0 4.742188,0.527344 6.515625,1.578125 1.781251,1.042969 3.085938,2.398438 3.921876,4.0625 0.84375,1.65625 1.265625,3.453125 1.265625,5.390625 v 15.8593761 c 0,0.7109375 -0.257813,1.30859379 -0.765625,1.79687506 -0.5,0.47656252 -1.105469,0.71875003 -1.8125,0.71875003 -0.710938,0 -1.308594,-0.24218751 -1.796875,-0.71875003 -0.480469,-0.48828127 -0.71875,-1.08593756 -0.71875,-1.79687506 V -3.702118 C 57.71955,-0.85836785 54.207831,0.56350721 49.950018,0.56350721 Z m 1.90625,-4.48437521 c 1.644531,0 3.226563,-0.3984375 4.75,-1.203125 1.53125,-0.8007813 2.820313,-1.8007814 3.875001,-3.0000002 v -4.7031248 h -6.109376 c -5.636719,0 -8.453125,1.476562 -8.453125,4.4218748 0,1.3437501 0.457031,2.4296876 1.375,3.2500002 0.914062,0.8242188 2.4375,1.234375 4.5625,1.234375 z m 52.304692,4.48437521 c -2.6875,0 -5.171877,-0.59765628 -7.453127,-1.79687511 -2.273438,-1.1953125 -4.089844,-2.9140626 -5.453126,-5.1562502 -1.367187,-2.2382813 -2.046875,-4.8671879 -2.046875,-7.8906249 0,-3.019532 0.679688,-5.648438 2.046875,-7.890626 1.363282,-2.238281 3.179688,-3.957031 5.453126,-5.15625 2.28125,-1.195313 4.765627,-1.796875 7.453127,-1.796875 1.97656,0 3.6875,0.257812 5.125,0.765625 1.4375,0.5 2.76953,1.140625 4,1.921875 0.75,0.492188 1.125,1.148438 1.125,1.96875 0,0.5625 -0.21875,1.078125 -0.65625,1.546875 -0.42969,0.460938 -0.91797,0.6875 -1.46875,0.6875 -0.41797,0 -0.82813,-0.109375 -1.23438,-0.328125 -1.23047,-0.632812 -2.28906,-1.09375 -3.17187,-1.375 -0.875,-0.28125 -1.96485,-0.421875 -3.26563,-0.421875 -3.21875,0 -5.746091,0.929688 -7.578122,2.78125 -1.824219,1.84375 -2.734376,4.277344 -2.734376,7.296876 0,3.023437 0.910157,5.4609373 2.734376,7.3124999 1.832031,1.8437501 4.359372,2.7656251 7.578122,2.7656251 1.30078,0 2.39063,-0.140625 3.26563,-0.421875 0.88281,-0.28125 1.9414,-0.734375 3.17187,-1.3593751 0.40625,-0.2265625 0.81641,-0.34375 1.23438,-0.34375 0.55078,0 1.03906,0.234375 1.46875,0.703125 0.4375,0.4687501 0.65625,0.9804688 0.65625,1.5312501 0,0.8242188 -0.375,1.4804688 -1.125,1.9687501 -1.23047,0.78125 -2.5625,1.42968755 -4,1.93750008 -1.4375,0.50000002 -3.14844,0.75000003 -5.125,0.75000003 z m 35.94531,-0.28125002 c -0.71094,0 -1.30859,-0.24218751 -1.79687,-0.71875003 -0.48047,-0.48828127 -0.71875,-1.08593756 -0.71875,-1.79687506 V -38.577119 c 0,-0.707032 0.23828,-1.3125 0.71875,-1.8125 0.48828,-0.507813 1.08593,-0.765626 1.79687,-0.765626 0.71875,0 1.32813,0.257813 1.82813,0.765626 0.5,0.5 0.75,1.105468 0.75,1.8125 v 22.890626 l 13.32812,-12.312501 c 0.5625,-0.488281 1.125,-0.734375 1.6875,-0.734375 0.85157,0 1.47266,0.246094 1.85938,0.734375 0.39453,0.492188 0.59375,1.070313 0.59375,1.734375 0,0.636719 -0.3125,1.273438 -0.9375,1.90625 l -8.07813,7.21875 10.14063,13.437501 c 0.375,0.4921875 0.5625,0.9960938 0.5625,1.5156251 0,0.75 -0.2461,1.35156255 -0.73438,1.79687507 -0.48047,0.44531252 -1.09375,0.67187502 -1.84375,0.67187502 -0.375,0 -0.75,-0.09375 -1.125,-0.28125001 -0.36718,-0.1875 -0.67968,-0.44531252 -0.9375,-0.78125003 l -9.64062,-13.10937515 -4.875,4.4218748 v 7.2343753 c 0,0.7109375 -0.25,1.30859379 -0.75,1.79687506 -0.5,0.47656252 -1.10938,0.71875003 -1.82813,0.71875003 z m 57.57032,0.28125002 c -4.55469,0 -8.10938,-1.29687506 -10.67188,-3.89062521 -2.55469,-2.5937501 -3.82812,-6.2421877 -3.82812,-10.953125 0,-2.644532 0.48437,-5.085938 1.45312,-7.328126 0.96875,-2.238281 2.45703,-4.050781 4.46875,-5.4375 2.01953,-1.382813 4.50781,-2.078125 7.46875,-2.078125 2.75781,0 5.14453,0.648437 7.15625,1.9375 2.01953,1.292969 3.55078,3.011719 4.59375,5.15625 1.05078,2.148438 1.57813,4.484375 1.57813,7.015626 0,0.71875 -0.23438,1.324218 -0.70313,1.8125 -0.46875,0.480468 -1.09375,0.71875 -1.875,0.71875 h -18.98437 c 0.28906,2.6171873 1.25781,4.6523436 2.90625,6.1093749 1.64453,1.4492188 3.9414,2.1718751 6.89062,2.1718751 1.5625,0 2.92969,-0.1445312 4.10938,-0.4375 1.17578,-0.3007813 2.32812,-0.734375 3.45312,-1.2968751 0.28906,-0.1445312 0.625,-0.21875 1,-0.21875 0.60156,0 1.12891,0.2109375 1.57813,0.6250001 0.44531,0.40625 0.67187,0.9296875 0.67187,1.5625 0,0.8125001 -0.49219,1.5000001 -1.46875,2.0625001 -1.44922,0.8242188 -2.88672,1.44531256 -4.3125,1.85937508 -1.41797,0.40625002 -3.24609,0.60937503 -5.48437,0.60937503 z m 7.17187,-17.18750121 c -0.11719,-1.832031 -0.59375,-3.363281 -1.4375,-4.59375 -0.83594,-1.238281 -1.87109,-2.144531 -3.10937,-2.71875 -1.23047,-0.582031 -2.47657,-0.875 -3.73438,-0.875 -1.27344,0 -2.52734,0.292969 -3.76562,0.875 -1.23047,0.574219 -2.25782,1.480469 -3.07813,2.71875 -0.8125,1.230469 -1.27734,2.761719 -1.39062,4.59375 z m 31.07422,16.90625119 c -0.71094,0 -1.30859,-0.24218751 -1.79687,-0.71875003 -0.48047,-0.48828127 -0.71875,-1.08593756 -0.71875,-1.79687506 V -26.264619 c 0,-0.707031 0.23828,-1.3125 0.71875,-1.8125 0.48828,-0.507813 1.08593,-0.765625 1.79687,-0.765625 0.71875,0 1.32813,0.257812 1.82813,0.765625 0.5,0.5 0.75,1.105469 0.75,1.8125 v 2.40625 c 2.61328,-3.507812 5.54687,-5.265625 8.79687,-5.265625 h 0.28125 c 0.70703,0 1.29688,0.246094 1.76563,0.734375 0.46875,0.492188 0.70312,1.089844 0.70312,1.796875 0,0.710938 -0.24609,1.289063 -0.73437,1.734375 -0.49219,0.449219 -1.10547,0.671875 -1.84375,0.671875 h -0.28125 c -1.79297,0 -3.4375,0.4375 -4.9375,1.3125 -1.49219,0.875 -2.74219,2.078125 -3.75,3.609375 v 17.0312511 c 0,0.7109375 -0.25,1.30859379 -0.75,1.79687506 -0.5,0.47656252 -1.10938,0.71875003 -1.82813,0.71875003 z m 0,0"
         style="fill:#000000;fill-opacity:1;fill-rule:nonzero;stroke:none"
         aria-label="racker"
         transform="translate(157.97186,286.39352)" />
    </g>
  </g>
</svg>
